<svg width="1089" height="92" viewBox="0 0 1089 92" fill="none" xmlns="http://www.w3.org/2000/svg">
<g clip-path="url(#clip0_27_15)">
<path d="M354.834 89.9932H373.263V52.8671L401 2.19496H379.822L354.834 49.1043V89.9932ZM338.654 40.638H359.332L338.654 2.19496H317.914L338.654 40.638ZM297.798 32.5481C297.798 41.5787 292.926 45.9686 283.617 45.9686H265.813V19.5665H282.993C292.301 19.5665 297.798 23.5174 297.798 32.5481ZM246.76 89.9932H265.813V63.3402H283.617C284.679 63.3402 285.741 63.2774 286.803 63.2147L300.734 89.9932H321.1L304.045 57.7587C312.167 52.1772 316.102 42.9584 316.102 32.5481C316.102 15.5528 305.67 2.19496 282.993 2.19496H246.76V89.9932ZM220.459 45.9686H211.901C211.901 57.3197 203.467 65.7233 192.91 65.7233V74.3149C177.417 74.3149 166.172 61.4588 166.172 45.9686C166.172 29.2243 176.168 17.9986 192.91 17.9986C208.403 17.9986 220.459 29.8514 220.459 45.9686ZM192.91 92V82.9693C213.213 82.9693 228.456 67.1029 228.456 45.9686H237.826C237.826 20.9461 218.46 0 192.91 0C165.485 0 147.806 19.1275 147.806 45.9686C147.806 70.9911 167.359 92 192.91 92ZM101.015 89.9932H120.256V19.5037H147.931V2.13224H73.4032V19.5037H101.015V89.9932ZM34.9212 92C54.0372 92 69.53 80.4608 69.53 61.1452C69.53 42.9584 55.9738 30.2904 34.8587 30.2904V43.6483C25.1133 43.6483 17.9916 39.3838 17.9916 30.5412C17.9916 21.6987 24.1762 16.4935 35.3585 16.4935C44.5417 16.4935 50.1016 20.319 51.4759 25.3361H68.468C67.1561 11.3511 54.0372 0 34.9836 0C14.868 0 0.562237 12.6053 0.562237 31.0429C0.562237 49.4806 15.4303 60.5181 34.8587 60.5181V47.7873C45.1664 47.7873 52.2256 52.4281 52.2256 61.4588C52.2256 70.4894 44.979 75.5692 34.9212 75.5692C25.8629 75.5692 19.5534 71.5556 17.6168 66.0368H0C2.49883 80.5862 15.8051 92 34.9212 92Z" fill="black"/>
</g>
<g clip-path="url(#clip1_27_15)">
<path d="M947.852 45.9686C947.852 28.9107 958.574 17.6851 974.815 17.6851C991.055 17.6851 1001.78 28.9107 1001.78 45.9686C1001.78 63.0266 991.055 74.2522 974.815 74.2522C958.574 74.2522 947.852 63.0266 947.852 45.9686ZM929.542 45.9686C929.542 72.998 948.165 91.9373 974.815 91.9373C1001.46 91.9373 1020.09 72.998 1020.09 45.9686C1020.09 18.9393 1001.46 0 974.815 0C948.165 0 929.542 18.9393 929.542 45.9686ZM758.672 46.0314C758.672 28.9734 769.394 17.7478 785.635 17.7478C801.875 17.7478 812.598 28.9734 812.598 46.0314C812.598 63.0893 801.875 74.3149 785.635 74.3149C769.394 74.3149 758.672 63.0893 758.672 46.0314ZM740.362 46.0314C740.362 73.0607 758.985 92 785.635 92C812.284 92 830.907 73.0607 830.907 46.0314C830.907 19.002 812.284 0.062713 785.635 0.062713C758.985 0.062713 740.362 19.002 740.362 46.0314ZM592.755 45.9686C592.755 28.9107 603.477 17.6851 619.718 17.6851C635.958 17.6851 646.681 28.9107 646.681 45.9686C646.681 63.0266 635.958 74.2522 619.718 74.2522C603.477 74.2522 592.755 63.0266 592.755 45.9686ZM574.445 45.9686C574.445 72.998 593.068 91.9373 619.718 91.9373C646.367 91.9373 664.991 72.998 664.991 45.9686C664.991 18.9393 646.367 0 619.718 0C593.068 0 574.445 18.9393 574.445 45.9686ZM438.125 45.9686V19.5665H453.488C462.831 19.5665 468.349 23.5174 468.349 32.5481C468.349 41.5787 463.458 45.9686 454.115 45.9686H438.125ZM419 89.9932H438.125V63.3402H454.115C476.249 63.3402 486.721 49.5433 486.721 32.5481C486.721 15.5528 476.249 2.19496 453.488 2.19496H419V89.9932ZM1030.31 89.9932H1089V70.7403H1049.62V2.13224H1030.31V89.9932ZM693.396 89.9932H712.709V19.5037H740.487V2.13224H665.68V19.5037H693.396V89.9932ZM547.67 32.5481C547.67 41.5787 542.779 45.9686 533.436 45.9686H515.565V19.5665H532.809C542.152 19.5665 547.67 23.5174 547.67 32.5481ZM496.44 89.9932H515.565V63.3402H533.436C534.502 63.3402 535.568 63.2774 536.634 63.2147L550.617 89.9932H571.059L553.941 57.7587C562.092 52.1772 566.043 42.9584 566.043 32.5481C566.043 15.5528 555.571 2.19496 532.809 2.19496H496.44V89.9932ZM882.89 92C905.338 92 921.202 77.9523 923.961 57.0061H905.463C903.018 67.9182 894.365 74.3149 882.451 74.3149C866.9 74.3149 857.118 63.0893 857.118 45.9686C857.118 28.848 866.963 17.9986 882.262 17.9986C894.176 17.9986 902.265 24.3327 904.836 34.9312H923.334C919.697 14.1731 903.394 0 881.886 0C856.616 0 838.808 19.5038 838.808 46.0314C838.808 72.559 856.428 92 882.89 92Z" fill="#7E7E7E"/>
</g>
<defs>
<clipPath id="clip0_27_15">
<rect width="401" height="92" fill="white"/>
</clipPath>
<clipPath id="clip1_27_15">
<rect width="670" height="92" fill="white" transform="translate(419)"/>
</clipPath>
</defs>
</svg>
